<?xml version="1.0" standalone="no"?>
<!DOCTYPE svg PUBLIC "-//W3C//DTD SVG 20010904//EN"
 "http://www.w3.org/TR/2001/REC-SVG-20010904/DTD/svg10.dtd">
<svg version="1.0" xmlns="http://www.w3.org/2000/svg"
 width="373.000000pt" height="373.000000pt" viewBox="0 0 373.000000 373.000000"
 preserveAspectRatio="xMidYMid meet">
<metadata>
Created by potrace 1.14, written by Peter Selinger 2001-2017
</metadata>
<g transform="translate(0.000000,373.000000) scale(0.100000,-0.100000)"
fill="#000000" stroke="none">
<path d="M1758 3725 c-2 -1 -34 -5 -73 -9 -38 -3 -81 -8 -95 -10 -14 -3 -53
-10 -88 -16 -396 -70 -829 -335 -1088 -665 -210 -268 -339 -571 -388 -911 -14
-97 -15 -406 -1 -499 41 -277 157 -575 314 -804 103 -150 263 -316 415 -430
52 -39 97 -71 100 -71 3 0 24 -13 48 -29 136 -91 438 -211 593 -235 22 -4 65
-11 95 -16 111 -19 344 -27 441 -16 122 15 129 16 254 42 231 48 495 171 703
329 397 301 645 721 723 1225 14 94 18 358 7 460 -24 207 -81 405 -176 610
-27 60 -126 222 -176 290 -126 172 -330 361 -516 477 -232 145 -487 233 -775
269 -49 6 -312 13 -317 9z m317 -89 c17 -3 59 -10 95 -15 591 -94 1118 -518
1346 -1084 46 -114 86 -252 103 -352 5 -33 13 -78 17 -100 10 -63 12 -323 3
-400 -16 -125 -20 -149 -45 -248 -144 -580 -570 -1046 -1139 -1250 -89 -31
-203 -61 -285 -73 -19 -3 -48 -8 -65 -11 -66 -12 -402 -10 -490 3 -378 57
-733 235 -1005 504 -168 165 -320 401 -406 629 -25 66 -81 269 -89 326 -18
115 -22 177 -22 306 0 405 140 805 391 1114 71 88 228 238 319 306 257 192
596 324 887 346 41 3 76 7 78 8 5 4 275 -3 307 -9z"/>
<path d="M1738 3575 c-2 -1 -30 -6 -63 -9 -244 -27 -505 -120 -707 -252 -426
-278 -730 -759 -804 -1274 -20 -135 -4 -390 24 -390 4 0 17 15 29 33 13 17 35
46 50 62 16 17 44 50 64 75 20 25 45 55 56 67 11 12 28 33 38 47 18 24 26 26
92 26 l72 0 50 158 c30 94 59 167 73 182 13 14 50 57 83 95 33 39 64 75 70 81
5 6 33 37 60 68 28 32 59 68 70 80 11 12 43 48 70 80 28 32 57 67 66 77 16 18
28 3 239 -306 138 -201 227 -322 234 -318 6 4 34 28 62 55 l50 48 -1 110 -1
110 36 43 c19 24 54 63 77 87 23 25 51 56 63 70 23 27 138 156 155 174 8 9
104 116 180 202 6 6 27 30 48 53 l39 42 48 -48 c26 -26 94 -93 151 -149 l104
-101 443 -221 c243 -122 442 -219 442 -214 0 28 -104 240 -168 342 -98 155
-262 340 -400 451 -222 179 -490 301 -752 343 -19 3 -48 9 -65 12 -31 6 -371
15 -377 9z m-142 -706 c66 -40 96 -130 67 -199 -67 -163 -291 -138 -319 37
-21 136 133 236 252 162z"/>
<path d="M2224 2984 c-49 -53 -93 -102 -99 -108 -68 -75 -209 -231 -242 -266
-23 -25 -62 -67 -86 -95 l-46 -50 1 -113 2 -113 -85 -85 -85 -85 -220 331
-219 331 -30 -34 c-16 -19 -55 -63 -85 -97 -30 -35 -63 -72 -73 -84 -10 -12
-28 -32 -40 -46 -12 -14 -52 -59 -87 -100 -36 -41 -74 -85 -85 -97 -11 -13
-41 -95 -68 -191 l-49 -169 -66 2 c-37 0 -74 -1 -84 -3 -9 -2 -46 -42 -83 -88
-37 -46 -72 -90 -79 -97 -6 -6 -38 -44 -69 -84 l-58 -71 12 -69 c28 -167 121
-390 234 -563 108 -165 311 -387 328 -359 4 8 44 77 88 154 89 157 81 144 168
274 90 134 96 142 197 272 278 352 538 558 785 621 69 17 97 19 168 13 47 -4
145 -9 217 -10 291 -6 586 90 862 281 91 63 119 86 189 151 l35 32 -159 80
c-710 358 -717 361 -800 441 -43 41 -106 101 -139 133 l-61 57 -89 -96z"/>
<path d="M3463 2289 c-26 -27 -47 -53 -46 -57 5 -19 25 -9 60 28 46 51 56 67
44 74 -5 3 -31 -17 -58 -45z"/>
<path d="M3494 2204 c-300 -275 -682 -523 -919 -598 -89 -28 -117 -32 -254
-41 -52 -3 -97 -8 -100 -10 -3 -1 -23 -6 -43 -9 -123 -19 -249 -85 -343 -180
-92 -92 -134 -174 -174 -336 -27 -112 -44 -167 -96 -308 -29 -80 -126 -286
-176 -373 -27 -48 -49 -91 -49 -97 0 -19 163 -63 285 -77 33 -4 69 -9 80 -12
39 -8 321 -4 393 7 367 52 661 186 931 425 259 227 458 598 536 995 25 125 23
358 -5 520 -5 30 -12 71 -15 90 -3 19 -7 36 -9 37 -1 2 -20 -13 -42 -33z"/>
<path d="M3189 2056 c-25 -19 -59 -41 -75 -50 -67 -38 -88 -53 -92 -64 -7 -21
17 -13 86 27 95 56 154 100 147 111 -9 15 -16 12 -66 -24z"/>
<path d="M2750 1834 c-36 -12 -91 -28 -122 -35 -59 -13 -88 -39 -44 -39 35 0
217 57 234 73 24 24 0 25 -68 1z"/>
<path d="M2175 1742 c-74 -3 -95 -10 -89 -26 3 -8 11 -13 17 -11 7 3 59 7 117
9 58 2 111 5 118 5 6 1 12 7 12 14 0 13 -52 16 -175 9z"/>
<path d="M1817 1646 c-65 -38 -148 -106 -142 -116 9 -15 20 -12 49 15 15 14
59 44 97 67 38 23 69 45 69 50 0 14 -34 7 -73 -16z"/>
<path d="M1522 1358 c-30 -38 -112 -200 -106 -210 10 -16 22 -7 39 30 10 20
35 67 56 104 22 36 39 71 39 77 0 15 -15 14 -28 -1z"/>
<path d="M1309 913 c-12 -27 -27 -61 -34 -78 -38 -85 -43 -105 -34 -111 6 -3
14 -2 19 2 10 12 90 209 90 223 0 27 -23 7 -41 -36z"/>
<path d="M1114 513 c-9 -15 -26 -36 -36 -47 -19 -20 -24 -46 -10 -46 16 0 92
93 92 112 0 18 -29 6 -46 -19z"/>
</g>
</svg>
